<?xml version="1.0" encoding="UTF-8"?>
<svg width="17px" height="17px" viewBox="0 0 17 17" version="1.1" xmlns="http://www.w3.org/2000/svg" xmlns:xlink="http://www.w3.org/1999/xlink">
    <!-- Generator: sketchtool 52.3 (67297) - http://www.bohemiancoding.com/sketch -->
    <title>1E0D28D2-FA9A-4A8A-8BCD-7BA588FCC3BF</title>
    <desc>Created with sketchtool.</desc>
    <g id="IPHONE-X-CentricView-3.0---App-Mobile" stroke="none" stroke-width="1" fill="none" fill-rule="evenodd">
        <g id="3.1-SITIOS-MENU-DESPLEGADO" transform="translate(-135.000000, -538.000000)" fill="#44AB00">
            <g id="Group-3" transform="translate(20.000000, 208.000000)">
                <g id="sin_alarmas-copy" transform="translate(115.000000, 330.000000)">
                    <path d="M7.22166037,12.184925 L7.19892471,12.2076607 L3.61980469,8.62854065 L4.69354492,7.55480042 L7.24120853,10.102464 L12.5330176,4.81067335 L13.6067541,5.8844079 L7.26393763,12.2272022 L7.22166037,12.184925 Z M8.50000014,1.36 C4.56298973,1.36 1.36,4.5629898 1.36,8.50000014 C1.36,12.4370102 4.56298973,15.64 8.50000014,15.64 C12.4370102,15.64 15.64,12.4370102 15.64,8.50000014 C15.64,4.5629898 12.4370102,1.36 8.50000014,1.36 Z M8.5,0 C13.1944225,0 17,3.8055772 17,8.49999999 C17,13.1944225 13.1944225,17 8.5,17 C3.80557722,17 0,13.1944225 0,8.49999999 C0,3.8055772 3.80557722,0 8.5,0 Z" id="Combined-Shape"></path>
                </g>
            </g>
        </g>
    </g>
</svg>