<?xml version="1.0" encoding="UTF-8"?>
<svg width="16px" height="13px" viewBox="0 0 16 13" version="1.1" xmlns="http://www.w3.org/2000/svg" xmlns:xlink="http://www.w3.org/1999/xlink">
    <!-- Generator: Sketch 52.3 (67297) - http://www.bohemiancoding.com/sketch -->
    <title>product</title>
    <desc>Created with Sketch.</desc>
    <g id="IPHONE-X-CentricView-3.0---App-Mobile" stroke="none" stroke-width="1" fill="none" fill-rule="evenodd">
        <g id="Artboard" transform="translate(-613.000000, -1050.000000)" fill="#EF7622">
            <g id="product" transform="translate(613.000000, 1050.000000)">
                <path d="M1,-3.68594044e-13 L15,-3.68594044e-13 C15.5522847,-3.68695497e-13 16,0.44771525 16,1 L16,11.8 C16,12.3522847 15.5522847,12.8 15,12.8 L1,12.8 C0.44771525,12.8 6.76353751e-17,12.3522847 0,11.8 L0,1 C-6.76353751e-17,0.44771525 0.44771525,-3.68492591e-13 1,-3.68594044e-13 Z M1.26666667,1.06666667 C1.15620972,1.06666667 1.06666667,1.15620972 1.06666667,1.26666667 L1.06666667,11.5333333 C1.06666667,11.6437903 1.15620972,11.7333333 1.26666667,11.7333333 L14.7333333,11.7333333 C14.8437903,11.7333333 14.9333333,11.6437903 14.9333333,11.5333333 L14.9333333,1.26666667 C14.9333333,1.15620972 14.8437903,1.06666667 14.7333333,1.06666667 L1.26666667,1.06666667 Z M1.06666667,3.2 L14.9333333,3.2 L14.9333333,4.26666667 L1.06666667,4.26666667 L1.06666667,3.2 Z M2.66666667,2.69973958 C2.3721148,2.69973958 2.13333333,2.46095812 2.13333333,2.16640625 C2.13333333,1.87185438 2.3721148,1.63307292 2.66666667,1.63307292 C2.96121853,1.63307292 3.2,1.87185438 3.2,2.16640625 C3.2,2.46095812 2.96121853,2.69973958 2.66666667,2.69973958 Z M4.82884115,2.69973958 C4.53428928,2.69973958 4.29550781,2.46095812 4.29550781,2.16640625 C4.29550781,1.87185438 4.53428928,1.63307292 4.82884115,1.63307292 C5.12339301,1.63307292 5.36217448,1.87185438 5.36217448,2.16640625 C5.36217448,2.46095812 5.12339301,2.69973958 4.82884115,2.69973958 Z M6.98717448,2.69973958 C6.69262261,2.69973958 6.45384115,2.46095812 6.45384115,2.16640625 C6.45384115,1.87185438 6.69262261,1.63307292 6.98717448,1.63307292 C7.28172635,1.63307292 7.52050781,1.87185438 7.52050781,2.16640625 C7.52050781,2.46095812 7.28172635,2.69973958 6.98717448,2.69973958 Z" id="Combined-Shape"></path>
            </g>
        </g>
    </g>
</svg>