<?xml version="1.0" encoding="UTF-8"?>
<svg width="16px" height="13px" viewBox="0 0 16 13" version="1.1" xmlns="http://www.w3.org/2000/svg" xmlns:xlink="http://www.w3.org/1999/xlink">
    <!-- Generator: sketchtool 52.3 (67297) - http://www.bohemiancoding.com/sketch -->
    <title>D91FB141-2448-4F8F-8C3D-652B628C1973</title>
    <desc>Created with sketchtool.</desc>
    <g id="IPHONE-X-CentricView-3.0---App-Mobile" stroke="none" stroke-width="1" fill="none" fill-rule="evenodd">
        <g id="6.-PARAMETROS-STATUS" transform="translate(-175.000000, -102.000000)" fill="#EF7622">
            <g id="tab_parametro" transform="translate(-1.000000, 83.000000)">
                <g id="Group">
                    <g id="icon_trendes" transform="translate(176.000000, 19.000000)">
                        <g id="Group">
                            <path d="M1,3.70068032 L3.14814815,3.70068032 C3.7004329,3.70068032 4.14814815,4.14839557 4.14814815,4.70068032 L4.14814815,12.9523811 L1,12.9523811 C0.44771525,12.9523811 6.12040683e-15,12.5046659 6.05277145e-15,11.9523811 L6.05277145e-15,4.70068032 C5.98513608e-15,4.14839557 0.44771525,3.70068032 1,3.70068032 Z M1.18258102,4.93663385 L1.18258102,11.718821 L2.96296296,11.718821 L2.96296296,4.93663385 L1.18258102,4.93663385 Z" id="Combined-Shape"></path>
                            <path d="M6.92592593,-2.30926389e-14 L9.07407407,-2.30926389e-14 C9.62635882,-2.3194092e-14 10.0740741,0.44771525 10.0740741,1 L10.0740741,12.9523811 L5.92592593,12.9523811 L5.92592593,1 C5.92592593,0.44771525 6.37364118,-2.29911858e-14 6.92592593,-2.30926389e-14 Z M7.11118189,1.23356011 L7.11118189,11.718821 L8.89163476,11.718821 L8.89163476,1.23356011 L7.11118189,1.23356011 Z" id="Combined-Shape-Copy-2"></path>
                            <path d="M2.96296296,7.40136065 L7.11111111,7.40136065 L7.11111111,12.9523811 L2.96296296,12.9523811 L2.96296296,7.40136065 Z M4.14814815,8.63047317 L4.14814815,11.7188212 L5.92592593,11.7188212 L5.92592593,8.63047317 L4.14814815,8.63047317 Z" id="Combined-Shape-Copy"></path>
                            <path d="M8.88888889,4.93424043 L13.037037,4.93424043 L13.037037,12.9523811 L8.88888889,12.9523811 L8.88888889,4.93424043 Z M10.0749171,6.17830622 L10.0749171,11.7188213 L11.8539628,11.7188213 L11.8539628,6.17830622 L10.0749171,6.17830622 Z" id="Combined-Shape-Copy-3"></path>
                            <path d="M12.8518519,1.23356011 L15,1.23356011 C15.5522847,1.23356011 16,1.68127536 16,2.23356011 L16,11.9523811 C16,12.5046659 15.5522847,12.9523811 15,12.9523811 L11.8518519,12.9523811 L11.8518519,2.23356011 C11.8518519,1.68127536 12.2995671,1.23356011 12.8518519,1.23356011 Z M13.037037,2.46712022 L13.037037,11.718821 L14.817419,11.718821 L14.817419,2.46712022 L13.037037,2.46712022 Z" id="Combined-Shape-Copy-4"></path>
                        </g>
                    </g>
                </g>
            </g>
        </g>
    </g>
</svg>