<?xml version="1.0" encoding="UTF-8"?>
<svg width="10px" height="10px" viewBox="0 0 10 10" version="1.1" xmlns="http://www.w3.org/2000/svg" xmlns:xlink="http://www.w3.org/1999/xlink">
    <!-- Generator: sketchtool 52.3 (67297) - http://www.bohemiancoding.com/sketch -->
    <title>6958FCDB-5861-49E4-90C6-BC797C3F5CAC</title>
    <desc>Created with sketchtool.</desc>
    <g id="IPHONE-X-CentricView-3.0---App-Mobile" stroke="none" stroke-width="1" fill="none" fill-rule="evenodd">
        <g id="3.1-SITIOS-MENU-DESPLEGADO" transform="translate(-348.000000, -641.000000)" fill="#EF7622">
            <g id="Group-3" transform="translate(20.000000, 208.000000)">
                <g id="icon_mas-copy-3" transform="translate(328.000000, 433.000000)">
                    <path d="M4.2,0 L5.8,-1.85962357e-15 C5.91045695,-1.87991418e-15 6,0.08954305 6,0.2 L6,4 L9.8,4 C9.91045695,4 10,4.08954305 10,4.2 L10,5.79614258 C10,5.90659953 9.91045695,5.99614258 9.8,5.99614258 L6,5.99614258 L6,9.8 C6,9.91045695 5.91045695,10 5.8,10 L4.2,10 C4.08954305,10 4,9.91045695 4,9.8 L4,5.99614258 L0.2,5.99614258 C0.08954305,5.99614258 3.06982769e-14,5.90659953 3.05866443e-14,5.79614258 L3.11140003e-14,4.20761719 C3.11004732e-14,4.09716024 0.08954305,4.00761719 0.2,4.00761719 L4,4.00761719 L4,0.2 C4,0.08954305 4.08954305,5.43262786e-15 4.2,5.41233725e-15 Z" id="Rectangle"></path>
                </g>
            </g>
        </g>
    </g>
</svg>