<?xml version="1.0" encoding="UTF-8"?>
<svg width="18px" height="19px" viewBox="0 0 18 19" version="1.1" xmlns="http://www.w3.org/2000/svg" xmlns:xlink="http://www.w3.org/1999/xlink">
    <!-- Generator: Sketch 52.3 (67297) - http://www.bohemiancoding.com/sketch -->
    <title>barco</title>
    <desc>Created with Sketch.</desc>
    <g id="IPHONE-X-CentricView-3.0---App-Mobile" stroke="none" stroke-width="1" fill="none" fill-rule="evenodd">
        <g id="Artboard" transform="translate(-542.000000, -1047.000000)" fill="#EF7622" fill-rule="nonzero">
            <g id="barco-linealnaranja-sites" transform="translate(542.000000, 1047.000000)">
                <path d="M7.5,2.28 L7.5,0 L10.5,0 L10.5,2.28 L11.9723144,2.28 L14.2538718,8.20489456 L18,9.18737734 L15.0038549,19 L2.99577894,19 L3.12105897e-12,9.18737734 L3.76300347,8.21129536 L6.07753142,2.28 L7.5,2.28 Z M8.37423135,0.915589488 L8.37423135,2.28 L9.61636628,2.28 L9.61636628,0.915589488 L8.37423135,0.915589488 Z M16.7427102,9.88064288 L9,7.91670348 L1.2619093,9.88064288 L2.08708845,12.5993111 L9,10.9071063 L15.9440918,12.5231839 L16.7427102,9.88064288 Z M15.6303489,13.4793901 L9,11.9277086 L2.36096192,13.5551775 L3.64862615,18.0288139 L14.25,18.0288139 L15.6303489,13.4793901 Z M11.3147461,3.3000625 L6.75080567,3.3000625 L5.04770508,7.86601801 L9.00843765,6.84 L13.0102295,7.86601801 L11.3147461,3.3000625 Z" id="Combined-Shape"></path>
            </g>
        </g>
    </g>
</svg>