<?xml version="1.0" encoding="UTF-8"?>
<svg width="21px" height="17px" viewBox="0 0 21 17" version="1.1" xmlns="http://www.w3.org/2000/svg" xmlns:xlink="http://www.w3.org/1999/xlink">
    <!-- Generator: Sketch 52.3 (67297) - http://www.bohemiancoding.com/sketch -->
    <title>antena</title>
    <desc>Created with Sketch.</desc>
    <g id="IPHONE-X-CentricView-3.0---App-Mobile" stroke="none" stroke-width="1" fill="none" fill-rule="evenodd">
        <g id="Artboard" transform="translate(-514.000000, -1049.000000)" fill="#EF7622">
            <g id="antena" transform="translate(513.000000, 1049.000000)">
                <g id="Combined-Shape" transform="translate(1.586207, 0.772727)">
                    <path d="M7.93103448,8.27880535 L7.93103448,15.4545455 C3.55084509,15.4545455 -1.97353245e-12,11.9949276 -1.97353245e-12,7.72727273 C-1.97353245e-12,3.45961784 3.55084509,0 7.93103448,0 L7.93103448,7.2742599 L8.75796903,7.2742599 C8.98291815,5.78195209 10.3024239,4.63636364 11.8965517,4.63636364 C13.6486275,4.63636364 15.0689655,6.02021077 15.0689655,7.72727273 C15.0689655,9.43433468 13.6486275,10.8181818 11.8965517,10.8181818 C10.3376889,10.8181818 9.04143213,9.72271766 8.77449588,8.27880535 L7.93103448,8.27880535 Z M11.8965517,9.70152121 C12.9027171,9.70152121 13.9708138,9.00756915 13.9708138,7.72727273 C13.9708138,6.44697626 12.8619295,5.72624544 11.8965517,5.72624544 C10.931174,5.72624544 9.81537436,6.44697626 9.81537436,7.72727273 C9.81537436,9.00756915 10.8903863,9.70152121 11.8965517,9.70152121 Z M14.2758621,3.0105896 L15.0393645,2.31818182 C16.8452432,3.81192941 17.7481826,5.61965249 17.7481826,7.74135105 C17.7481826,9.86304957 16.8551102,11.6695532 15.0689655,13.1608617 L14.2758621,12.4635826 C15.9128726,11.1107551 16.7313778,9.536678 16.7313778,7.74135105 C16.7313778,5.94602412 15.9128726,4.36910363 14.2758621,3.0105896 Z M16.0924388,1.37097307 L16.8628393,0.685026691 C19.1823184,2.516555 20.3420578,4.86397034 20.3420578,7.72727273 C20.3420578,10.5905751 19.1823184,12.9336413 16.8628393,14.7564713 L16.0924388,14.0642724 C18.2476482,12.3731768 19.325253,10.2608436 19.325253,7.72727273 C19.325253,5.19370181 18.2476482,3.07493525 16.0924388,1.37097307 Z M6.85899086,14.2263652 L6.85899086,1.31638652 C4.32190892,1.31638652 1.13733238,3.82283118 1.13733238,7.79312 C1.13733238,11.7634088 4.75862069,14.2263652 6.85899086,14.2263652 Z" fill-rule="nonzero"></path>
                </g>
            </g>
        </g>
    </g>
</svg>