<?xml version="1.0" encoding="UTF-8"?>
<svg width="23px" height="11px" viewBox="0 0 23 11" version="1.1" xmlns="http://www.w3.org/2000/svg" xmlns:xlink="http://www.w3.org/1999/xlink">
    <!-- Generator: sketchtool 55 (78076) - https://sketchapp.com -->
    <title>9273C507-5C08-4A5D-900E-FE8C9DF4CB27</title>
    <desc>Created with sketchtool.</desc>
    <g id="IPHONE-X-CentricView-3.0---App-Mobile" stroke="none" stroke-width="1" fill="none" fill-rule="evenodd">
        <g id="MENU-3SSRVICES" transform="translate(-23.000000, -739.000000)" fill="#EF7622">
            <g id="Group-6" transform="translate(10.000000, 667.000000)">
                <g id="Group">
                    <g id="icon_tracking" transform="translate(13.129282, 72.000000)">
                        <g id="tracking">
                            <path d="M12.8819012,6.13370818 C13.1942821,5.9634287 13.5525075,5.86666667 13.933333,5.86666667 C14.3433191,5.86666667 14.7271117,5.97881465 15.0557071,6.17410703 L17.90744,3.32237416 C17.7121476,2.99377873 17.5999996,2.60998615 17.5999996,2.2 C17.5999996,0.98497355 18.5849732,0 19.7999996,0 C21.0150261,0 21.9999996,0.98497355 21.9999996,2.2 C21.9999996,3.41502645 21.0150261,4.4 19.7999996,4.4 C19.4485932,4.4 19.11643,4.3176104 18.8217729,4.17109424 L15.9044272,7.08843992 C16.0509434,7.38309702 16.133333,7.71526028 16.133333,8.06666667 C16.133333,9.28169312 15.1483594,10.2666667 13.933333,10.2666667 C12.7183065,10.2666667 11.733333,9.28169312 11.733333,8.06666667 C11.733333,7.6858411 11.8300951,7.32761553 12.0003747,7.01523458 L9.11809864,4.13295855 C8.80571779,4.30323799 8.44749239,4.4 8.066667,4.4 C7.71526052,4.4 7.38309718,4.31761036 7.08844002,4.17109412 L4.17109399,7.08844015 C4.31761008,7.38309719 4.39999963,7.71526037 4.39999963,8.06666667 C4.39999963,9.28169312 3.41502608,10.2666667 2.19999963,10.2666667 C0.984973185,10.2666667 -3.65318526e-07,9.28169312 -3.65318526e-07,8.06666667 C-3.65318526e-07,6.85164022 0.984973185,5.86666667 2.19999963,5.86666667 C2.60998587,5.86666667 2.99377853,5.9788147 3.32237402,6.17410716 L6.17410724,3.32237394 C5.97881493,2.99377856 5.866667,2.60998606 5.866667,2.2 C5.866667,0.98497355 6.85164055,0 8.066667,0 C9.28169345,0 10.266667,0.98497355 10.266667,2.2 C10.266667,2.58082562 10.1699049,2.93905122 9.99962524,3.2514322 L12.8819012,6.13370818 Z M13.9320976,9.09333332 C14.49911,9.09333332 14.9587643,8.633679 14.9587643,8.06666667 C14.9587643,7.49965433 14.49911,7.04000002 13.9320976,7.04000002 C13.3650853,7.04000002 12.905431,7.49965433 12.905431,8.06666667 C12.905431,8.633679 13.3650853,9.09333332 13.9320976,9.09333332 Z M2.1987643,9.09333332 C2.76577663,9.09333332 3.22543095,8.633679 3.22543095,8.06666667 C3.22543095,7.49965433 2.76577663,7.04000002 2.1987643,7.04000002 C1.63175197,7.04000002 1.17209765,7.49965433 1.17209765,8.06666667 C1.17209765,8.633679 1.63175197,9.09333332 2.1987643,9.09333332 Z M19.7987643,3.22666665 C20.3657766,3.22666665 20.8254309,2.76701233 20.8254309,2.2 C20.8254309,1.63298767 20.3657766,1.17333335 19.7987643,1.17333335 C19.231752,1.17333335 18.7720977,1.63298767 18.7720977,2.2 C18.7720977,2.76701233 19.231752,3.22666665 19.7987643,3.22666665 Z M8.06543167,3.22666665 C8.632444,3.22666665 9.09209832,2.76701233 9.09209832,2.2 C9.09209832,1.63298767 8.632444,1.17333335 8.06543167,1.17333335 C7.49841933,1.17333335 7.03876502,1.63298767 7.03876502,2.2 C7.03876502,2.76701233 7.49841933,3.22666665 8.06543167,3.22666665 Z" id="Combined-Shape"></path>
                        </g>
                    </g>
                </g>
            </g>
        </g>
    </g>
</svg>